<svg version="1" xmlns="http://www.w3.org/2000/svg" width="933.333" height="933.333" viewBox="0 0 700.000000 700.000000"><path d="M329.8.5c-.2.1-4.1.5-8.8.9-10 .7-22.5 2.2-29.5 3.6-2.7.5-6.1 1.2-7.5 1.4-43.1 7.9-90.8 27.3-127.5 51.9-6.9 4.6-29.7 21.7-30.5 22.8-.3.3-2.5 2.3-5 4.4-8.5 7-22 20.5-36.1 36.1-21 23.2-45.2 62.6-58.5 95.2-6.2 15.1-14.6 41.1-16.9 52-.2.9-.8 3.7-1.4 6.2-1.1 4.9-1.3 6.2-3.5 19.5-3.3 20.2-4 29.4-4 56.5 0 12.4.3 25.9.7 30 .9 8.2 2.5 20.8 3.3 25.5.3 1.6.7 3.9.8 5 .2 1.1.6 3.3 1 5 .3 1.6.8 3.9 1 5.1 5.5 29.1 21.1 71 36.2 97.6 2 3.4 4.5 7.9 5.6 9.8 20.2 35.3 55.8 74.7 91.8 101.6 35.1 26.2 80.6 48.2 120 57.9 4.9 1.2 15.8 3.7 17.5 4.1 10.3 2.1 18.9 3.5 23.9 4 3.3.3 6.3.7 6.7.9 1.5 1 23.2 2 41.4 2 18.4-.1 33.7-.8 42.5-2.1 14.4-2.1 29.5-4.8 34.5-6.1 3.3-.8 6.7-1.6 7.5-1.8 10.9-2.2 38.8-11.7 54.9-18.7 12.1-5.3 30.8-14.8 35.3-17.9 1.4-1.1 2.9-1.9 3.3-1.9 2.4 0 38.3-25.7 49.5-35.5 11.8-10.3 29.3-27.8 36.5-36.5 2.1-2.5 4.1-4.7 4.4-5 .4-.3 4.5-5.5 9.1-11.5 33.2-43.6 54.7-91.5 65.4-145.6 1.4-7 2.8-15.5 3.2-19 .3-3.5.8-6.7 1-7 .9-1.7 1.9-21.4 1.8-39.9 0-18.8-.6-33.1-1.9-42-.3-1.9-.7-5.6-1-8.1-.3-2.5-.7-5.4-.9-6.5-.2-1-1.1-6-2.1-10.9-9.8-52.5-33.7-105.2-67-148-4.3-5.5-8.1-10.2-8.4-10.5-.3-.3-3.5-3.8-7-7.8C563.2 62.6 494.7 22.8 422.3 7.6 412.5 5.5 398 3.3 383 1.5c-5.4-.7-52.6-1.6-53.2-1z"/></svg>